<mxfile host="app.diagrams.net" agent="Mozilla/5.0 (Windows NT 10.0; Win64; x64) AppleWebKit/537.36 (KHTML, like Gecko) Chrome/130.0.0.0 Safari/537.36 Edg/130.0.0.0" version="24.7.12">
  <diagram id="C5RBs43oDa-KdzZeNtuy" name="Page-1">
    <mxGraphModel dx="2722" dy="2196" grid="1" gridSize="10" guides="1" tooltips="1" connect="1" arrows="1" fold="1" page="1" pageScale="1" pageWidth="827" pageHeight="1169" math="0" shadow="0">
      <root>
        <mxCell id="WIyWlLk6GJQsqaUBKTNV-0" />
        <mxCell id="WIyWlLk6GJQsqaUBKTNV-1" parent="WIyWlLk6GJQsqaUBKTNV-0" />
        <mxCell id="1vtb1KImNI2E9GhAZsTV-21" style="edgeStyle=orthogonalEdgeStyle;rounded=0;orthogonalLoop=1;jettySize=auto;html=1;entryX=0;entryY=0.5;entryDx=0;entryDy=0;endArrow=diamond;endFill=0;exitX=1;exitY=0.5;exitDx=0;exitDy=0;" parent="WIyWlLk6GJQsqaUBKTNV-1" source="1vtb1KImNI2E9GhAZsTV-15" target="1vtb1KImNI2E9GhAZsTV-18" edge="1">
          <mxGeometry relative="1" as="geometry" />
        </mxCell>
        <mxCell id="1vtb1KImNI2E9GhAZsTV-4" value="CPP_Card" style="swimlane;fontStyle=1;align=center;verticalAlign=top;childLayout=stackLayout;horizontal=1;startSize=26;horizontalStack=0;resizeParent=1;resizeParentMax=0;resizeLast=0;collapsible=1;marginBottom=0;whiteSpace=wrap;html=1;" parent="WIyWlLk6GJQsqaUBKTNV-1" vertex="1">
          <mxGeometry x="200" y="330" width="230" height="160" as="geometry" />
        </mxCell>
        <mxCell id="1vtb1KImNI2E9GhAZsTV-5" value="+ Mesh: UStaticMeshComponent*&lt;div&gt;+CardName: FString&lt;/div&gt;&lt;div&gt;+CardCost: int32&lt;/div&gt;&lt;div&gt;+CardRole: FRole&lt;/div&gt;&lt;div&gt;+CardActionGrid : TArray&amp;lt;F2DVectorInt&amp;gt;&lt;/div&gt;&lt;div&gt;+CardAttack:TArray&amp;lt;AActor*&amp;gt;&lt;/div&gt;" style="text;strokeColor=none;fillColor=none;align=left;verticalAlign=top;spacingLeft=4;spacingRight=4;overflow=hidden;rotatable=0;points=[[0,0.5],[1,0.5]];portConstraint=eastwest;whiteSpace=wrap;html=1;" parent="1vtb1KImNI2E9GhAZsTV-4" vertex="1">
          <mxGeometry y="26" width="230" height="94" as="geometry" />
        </mxCell>
        <mxCell id="lDBsE0UKdXbJ8E-LJkqk-1" value="" style="endArrow=none;html=1;rounded=0;entryX=1.017;entryY=-0.022;entryDx=0;entryDy=0;entryPerimeter=0;exitX=0;exitY=0;exitDx=0;exitDy=0;exitPerimeter=0;" edge="1" parent="1vtb1KImNI2E9GhAZsTV-4" source="1vtb1KImNI2E9GhAZsTV-15" target="1vtb1KImNI2E9GhAZsTV-15">
          <mxGeometry width="50" height="50" relative="1" as="geometry">
            <mxPoint x="130" y="150" as="sourcePoint" />
            <mxPoint x="180" y="100" as="targetPoint" />
          </mxGeometry>
        </mxCell>
        <mxCell id="1vtb1KImNI2E9GhAZsTV-15" value="&lt;div&gt;&lt;font color=&quot;#ff9999&quot;&gt;+SpawnAttack(---):void&lt;/font&gt;&lt;br&gt;&lt;div&gt;#BeginPlay():void&lt;/div&gt;&lt;/div&gt;" style="text;strokeColor=none;fillColor=none;align=left;verticalAlign=top;spacingLeft=4;spacingRight=4;overflow=hidden;rotatable=0;points=[[0,0.5],[1,0.5]];portConstraint=eastwest;whiteSpace=wrap;html=1;" parent="1vtb1KImNI2E9GhAZsTV-4" vertex="1">
          <mxGeometry y="120" width="230" height="40" as="geometry" />
        </mxCell>
        <mxCell id="1vtb1KImNI2E9GhAZsTV-17" value="Action" style="swimlane;fontStyle=1;align=center;verticalAlign=top;childLayout=stackLayout;horizontal=1;startSize=26;horizontalStack=0;resizeParent=1;resizeParentMax=0;resizeLast=0;collapsible=1;marginBottom=0;whiteSpace=wrap;html=1;" parent="WIyWlLk6GJQsqaUBKTNV-1" vertex="1">
          <mxGeometry x="520" y="460" width="160" height="86" as="geometry" />
        </mxCell>
        <mxCell id="1vtb1KImNI2E9GhAZsTV-18" value="- ActionName : string" style="text;strokeColor=none;fillColor=none;align=left;verticalAlign=top;spacingLeft=4;spacingRight=4;overflow=hidden;rotatable=0;points=[[0,0.5],[1,0.5]];portConstraint=eastwest;whiteSpace=wrap;html=1;" parent="1vtb1KImNI2E9GhAZsTV-17" vertex="1">
          <mxGeometry y="26" width="160" height="26" as="geometry" />
        </mxCell>
        <mxCell id="1vtb1KImNI2E9GhAZsTV-19" value="" style="line;strokeWidth=1;fillColor=none;align=left;verticalAlign=middle;spacingTop=-1;spacingLeft=3;spacingRight=3;rotatable=0;labelPosition=right;points=[];portConstraint=eastwest;strokeColor=inherit;" parent="1vtb1KImNI2E9GhAZsTV-17" vertex="1">
          <mxGeometry y="52" width="160" height="8" as="geometry" />
        </mxCell>
        <mxCell id="1vtb1KImNI2E9GhAZsTV-20" value="+ Effect() : void" style="text;strokeColor=none;fillColor=none;align=left;verticalAlign=top;spacingLeft=4;spacingRight=4;overflow=hidden;rotatable=0;points=[[0,0.5],[1,0.5]];portConstraint=eastwest;whiteSpace=wrap;html=1;" parent="1vtb1KImNI2E9GhAZsTV-17" vertex="1">
          <mxGeometry y="60" width="160" height="26" as="geometry" />
        </mxCell>
        <mxCell id="1vtb1KImNI2E9GhAZsTV-27" style="edgeStyle=orthogonalEdgeStyle;rounded=0;orthogonalLoop=1;jettySize=auto;html=1;entryX=0.5;entryY=0;entryDx=0;entryDy=0;endArrow=diamond;endFill=0;" parent="WIyWlLk6GJQsqaUBKTNV-1" source="1vtb1KImNI2E9GhAZsTV-23" target="1vtb1KImNI2E9GhAZsTV-4" edge="1">
          <mxGeometry relative="1" as="geometry" />
        </mxCell>
        <mxCell id="1vtb1KImNI2E9GhAZsTV-23" value="CPP_Stack" style="swimlane;fontStyle=1;align=center;verticalAlign=top;childLayout=stackLayout;horizontal=1;startSize=26;horizontalStack=0;resizeParent=1;resizeParentMax=0;resizeLast=0;collapsible=1;marginBottom=0;whiteSpace=wrap;html=1;" parent="WIyWlLk6GJQsqaUBKTNV-1" vertex="1">
          <mxGeometry x="210" y="100" width="250" height="110" as="geometry" />
        </mxCell>
        <mxCell id="1vtb1KImNI2E9GhAZsTV-29" value="+CardsArray:TArray&amp;lt;ACPP_Card*&amp;gt;&amp;nbsp;" style="text;strokeColor=none;fillColor=none;align=left;verticalAlign=top;spacingLeft=4;spacingRight=4;overflow=hidden;rotatable=0;points=[[0,0.5],[1,0.5]];portConstraint=eastwest;whiteSpace=wrap;html=1;" parent="1vtb1KImNI2E9GhAZsTV-23" vertex="1">
          <mxGeometry y="26" width="250" height="26" as="geometry" />
        </mxCell>
        <mxCell id="1vtb1KImNI2E9GhAZsTV-25" value="" style="line;strokeWidth=1;fillColor=none;align=left;verticalAlign=middle;spacingTop=-1;spacingLeft=3;spacingRight=3;rotatable=0;labelPosition=right;points=[];portConstraint=eastwest;strokeColor=inherit;" parent="1vtb1KImNI2E9GhAZsTV-23" vertex="1">
          <mxGeometry y="52" width="250" height="8" as="geometry" />
        </mxCell>
        <mxCell id="1vtb1KImNI2E9GhAZsTV-26" value="+ Push_Implementation(ACPP_Card*) : void&lt;div&gt;+ Pop_Implementation(): ACPP_Card*&lt;/div&gt;" style="text;strokeColor=none;fillColor=none;align=left;verticalAlign=top;spacingLeft=4;spacingRight=4;overflow=hidden;rotatable=0;points=[[0,0.5],[1,0.5]];portConstraint=eastwest;whiteSpace=wrap;html=1;" parent="1vtb1KImNI2E9GhAZsTV-23" vertex="1">
          <mxGeometry y="60" width="250" height="50" as="geometry" />
        </mxCell>
        <mxCell id="1vtb1KImNI2E9GhAZsTV-37" style="edgeStyle=orthogonalEdgeStyle;rounded=0;orthogonalLoop=1;jettySize=auto;html=1;endArrow=diamond;endFill=0;targetPerimeterSpacing=0;entryX=0.502;entryY=1.031;entryDx=0;entryDy=0;entryPerimeter=0;" parent="WIyWlLk6GJQsqaUBKTNV-1" source="1vtb1KImNI2E9GhAZsTV-31" target="1vtb1KImNI2E9GhAZsTV-15" edge="1">
          <mxGeometry relative="1" as="geometry">
            <Array as="points">
              <mxPoint x="320" y="491" />
            </Array>
            <mxPoint x="335" y="460" as="targetPoint" />
          </mxGeometry>
        </mxCell>
        <mxCell id="1vtb1KImNI2E9GhAZsTV-38" value="+0..8" style="edgeLabel;html=1;align=center;verticalAlign=middle;resizable=0;points=[];" parent="1vtb1KImNI2E9GhAZsTV-37" vertex="1" connectable="0">
          <mxGeometry x="0.3803" y="-4" relative="1" as="geometry">
            <mxPoint x="16" y="-4" as="offset" />
          </mxGeometry>
        </mxCell>
        <mxCell id="1vtb1KImNI2E9GhAZsTV-31" value="Hand" style="swimlane;fontStyle=1;align=center;verticalAlign=top;childLayout=stackLayout;horizontal=1;startSize=26;horizontalStack=0;resizeParent=1;resizeParentMax=0;resizeLast=0;collapsible=1;marginBottom=0;whiteSpace=wrap;html=1;" parent="WIyWlLk6GJQsqaUBKTNV-1" vertex="1">
          <mxGeometry x="191.5" y="585" width="235" height="78" as="geometry" />
        </mxCell>
        <mxCell id="1vtb1KImNI2E9GhAZsTV-32" value="+ MaxCardCount : int" style="text;strokeColor=none;fillColor=none;align=left;verticalAlign=top;spacingLeft=4;spacingRight=4;overflow=hidden;rotatable=0;points=[[0,0.5],[1,0.5]];portConstraint=eastwest;whiteSpace=wrap;html=1;" parent="1vtb1KImNI2E9GhAZsTV-31" vertex="1">
          <mxGeometry y="26" width="235" height="26" as="geometry" />
        </mxCell>
        <mxCell id="1vtb1KImNI2E9GhAZsTV-35" value="+ Cards : array&amp;lt;Card&amp;gt;" style="text;strokeColor=none;fillColor=none;align=left;verticalAlign=top;spacingLeft=4;spacingRight=4;overflow=hidden;rotatable=0;points=[[0,0.5],[1,0.5]];portConstraint=eastwest;whiteSpace=wrap;html=1;" parent="1vtb1KImNI2E9GhAZsTV-31" vertex="1">
          <mxGeometry y="52" width="235" height="26" as="geometry" />
        </mxCell>
        <mxCell id="1vtb1KImNI2E9GhAZsTV-39" value="+0..25" style="edgeLabel;html=1;align=center;verticalAlign=middle;resizable=0;points=[];" parent="WIyWlLk6GJQsqaUBKTNV-1" vertex="1" connectable="0">
          <mxGeometry x="355" y="310" as="geometry" />
        </mxCell>
        <mxCell id="1vtb1KImNI2E9GhAZsTV-49" style="edgeStyle=orthogonalEdgeStyle;rounded=0;orthogonalLoop=1;jettySize=auto;html=1;startArrow=diamond;startFill=1;endArrow=none;endFill=0;" parent="WIyWlLk6GJQsqaUBKTNV-1" source="1vtb1KImNI2E9GhAZsTV-44" target="1vtb1KImNI2E9GhAZsTV-31" edge="1">
          <mxGeometry relative="1" as="geometry" />
        </mxCell>
        <mxCell id="1vtb1KImNI2E9GhAZsTV-53" value="+1" style="edgeLabel;html=1;align=center;verticalAlign=middle;resizable=0;points=[];" parent="1vtb1KImNI2E9GhAZsTV-49" vertex="1" connectable="0">
          <mxGeometry x="0.2662" y="3" relative="1" as="geometry">
            <mxPoint x="15" y="-30" as="offset" />
          </mxGeometry>
        </mxCell>
        <mxCell id="1vtb1KImNI2E9GhAZsTV-44" value="Player" style="swimlane;fontStyle=1;align=center;verticalAlign=top;childLayout=stackLayout;horizontal=1;startSize=26;horizontalStack=0;resizeParent=1;resizeParentMax=0;resizeLast=0;collapsible=1;marginBottom=0;whiteSpace=wrap;html=1;" parent="WIyWlLk6GJQsqaUBKTNV-1" vertex="1">
          <mxGeometry x="119" y="739" width="380" height="216" as="geometry" />
        </mxCell>
        <mxCell id="1vtb1KImNI2E9GhAZsTV-45" value="+ MyHand : Hand" style="text;strokeColor=none;fillColor=none;align=left;verticalAlign=top;spacingLeft=4;spacingRight=4;overflow=hidden;rotatable=0;points=[[0,0.5],[1,0.5]];portConstraint=eastwest;whiteSpace=wrap;html=1;" parent="1vtb1KImNI2E9GhAZsTV-44" vertex="1">
          <mxGeometry y="26" width="380" height="26" as="geometry" />
        </mxCell>
        <mxCell id="1vtb1KImNI2E9GhAZsTV-51" value="+ MyDrawPiles : array&amp;lt;DrawPile&amp;gt;" style="text;strokeColor=none;fillColor=none;align=left;verticalAlign=top;spacingLeft=4;spacingRight=4;overflow=hidden;rotatable=0;points=[[0,0.5],[1,0.5]];portConstraint=eastwest;whiteSpace=wrap;html=1;" parent="1vtb1KImNI2E9GhAZsTV-44" vertex="1">
          <mxGeometry y="52" width="380" height="26" as="geometry" />
        </mxCell>
        <mxCell id="1vtb1KImNI2E9GhAZsTV-61" value="+ MyTeam : F_Team" style="text;strokeColor=none;fillColor=none;align=left;verticalAlign=top;spacingLeft=4;spacingRight=4;overflow=hidden;rotatable=0;points=[[0,0.5],[1,0.5]];portConstraint=eastwest;whiteSpace=wrap;html=1;" parent="1vtb1KImNI2E9GhAZsTV-44" vertex="1">
          <mxGeometry y="78" width="380" height="26" as="geometry" />
        </mxCell>
        <mxCell id="1vtb1KImNI2E9GhAZsTV-124" value="+ MyPieces : array&amp;lt;ClassPiece&amp;gt;" style="text;strokeColor=none;fillColor=none;align=left;verticalAlign=top;spacingLeft=4;spacingRight=4;overflow=hidden;rotatable=0;points=[[0,0.5],[1,0.5]];portConstraint=eastwest;whiteSpace=wrap;html=1;" parent="1vtb1KImNI2E9GhAZsTV-44" vertex="1">
          <mxGeometry y="104" width="380" height="26" as="geometry" />
        </mxCell>
        <mxCell id="1vtb1KImNI2E9GhAZsTV-46" value="" style="line;strokeWidth=1;fillColor=none;align=left;verticalAlign=middle;spacingTop=-1;spacingLeft=3;spacingRight=3;rotatable=0;labelPosition=right;points=[];portConstraint=eastwest;strokeColor=inherit;" parent="1vtb1KImNI2E9GhAZsTV-44" vertex="1">
          <mxGeometry y="130" width="380" height="8" as="geometry" />
        </mxCell>
        <mxCell id="1vtb1KImNI2E9GhAZsTV-88" value="+ PlayCard(TargetCard : Card) : void" style="text;strokeColor=none;fillColor=none;align=left;verticalAlign=top;spacingLeft=4;spacingRight=4;overflow=hidden;rotatable=0;points=[[0,0.5],[1,0.5]];portConstraint=eastwest;whiteSpace=wrap;html=1;" parent="1vtb1KImNI2E9GhAZsTV-44" vertex="1">
          <mxGeometry y="138" width="380" height="26" as="geometry" />
        </mxCell>
        <mxCell id="1vtb1KImNI2E9GhAZsTV-47" value="+ DrawCard(TargetPile : DrawPile) : Card" style="text;strokeColor=none;fillColor=none;align=left;verticalAlign=top;spacingLeft=4;spacingRight=4;overflow=hidden;rotatable=0;points=[[0,0.5],[1,0.5]];portConstraint=eastwest;whiteSpace=wrap;html=1;" parent="1vtb1KImNI2E9GhAZsTV-44" vertex="1">
          <mxGeometry y="164" width="380" height="26" as="geometry" />
        </mxCell>
        <mxCell id="1vtb1KImNI2E9GhAZsTV-123" value="+ MovePiece(TargetPiece : Piece, MoveDirection : Movement) : void" style="text;strokeColor=none;fillColor=none;align=left;verticalAlign=top;spacingLeft=4;spacingRight=4;overflow=hidden;rotatable=0;points=[[0,0.5],[1,0.5]];portConstraint=eastwest;whiteSpace=wrap;html=1;" parent="1vtb1KImNI2E9GhAZsTV-44" vertex="1">
          <mxGeometry y="190" width="380" height="26" as="geometry" />
        </mxCell>
        <mxCell id="1vtb1KImNI2E9GhAZsTV-52" value="+4" style="text;html=1;align=center;verticalAlign=middle;resizable=0;points=[];autosize=1;strokeColor=none;fillColor=none;" parent="WIyWlLk6GJQsqaUBKTNV-1" vertex="1">
          <mxGeometry x="233" y="57" width="40" height="30" as="geometry" />
        </mxCell>
        <mxCell id="1vtb1KImNI2E9GhAZsTV-54" value="F_Team" style="swimlane;fontStyle=0;childLayout=stackLayout;horizontal=1;startSize=26;fillColor=none;horizontalStack=0;resizeParent=1;resizeParentMax=0;resizeLast=0;collapsible=1;marginBottom=0;whiteSpace=wrap;html=1;" parent="WIyWlLk6GJQsqaUBKTNV-1" vertex="1">
          <mxGeometry x="570" y="116" width="140" height="78" as="geometry" />
        </mxCell>
        <mxCell id="1vtb1KImNI2E9GhAZsTV-55" value="+ TeamName : string" style="text;strokeColor=none;fillColor=none;align=left;verticalAlign=top;spacingLeft=4;spacingRight=4;overflow=hidden;rotatable=0;points=[[0,0.5],[1,0.5]];portConstraint=eastwest;whiteSpace=wrap;html=1;" parent="1vtb1KImNI2E9GhAZsTV-54" vertex="1">
          <mxGeometry y="26" width="140" height="26" as="geometry" />
        </mxCell>
        <mxCell id="1vtb1KImNI2E9GhAZsTV-56" value="+ TeamColor : FColor" style="text;strokeColor=none;fillColor=none;align=left;verticalAlign=top;spacingLeft=4;spacingRight=4;overflow=hidden;rotatable=0;points=[[0,0.5],[1,0.5]];portConstraint=eastwest;whiteSpace=wrap;html=1;" parent="1vtb1KImNI2E9GhAZsTV-54" vertex="1">
          <mxGeometry y="52" width="140" height="26" as="geometry" />
        </mxCell>
        <mxCell id="1vtb1KImNI2E9GhAZsTV-58" style="edgeStyle=orthogonalEdgeStyle;rounded=0;orthogonalLoop=1;jettySize=auto;html=1;entryX=0;entryY=0.25;entryDx=0;entryDy=0;endArrow=diamond;endFill=0;" parent="WIyWlLk6GJQsqaUBKTNV-1" target="1vtb1KImNI2E9GhAZsTV-54" edge="1">
          <mxGeometry relative="1" as="geometry">
            <mxPoint x="459.9999999999998" y="165.0000000000001" as="sourcePoint" />
          </mxGeometry>
        </mxCell>
        <mxCell id="1vtb1KImNI2E9GhAZsTV-59" value="+1" style="text;html=1;align=center;verticalAlign=middle;resizable=0;points=[];autosize=1;strokeColor=none;fillColor=none;" parent="WIyWlLk6GJQsqaUBKTNV-1" vertex="1">
          <mxGeometry x="525" y="135" width="40" height="30" as="geometry" />
        </mxCell>
        <mxCell id="1vtb1KImNI2E9GhAZsTV-64" style="edgeStyle=orthogonalEdgeStyle;rounded=0;orthogonalLoop=1;jettySize=auto;html=1;exitX=1;exitY=0.5;exitDx=0;exitDy=0;entryX=0;entryY=0.5;entryDx=0;entryDy=0;dashed=1;dashPattern=8 8;endArrow=open;endFill=0;" parent="WIyWlLk6GJQsqaUBKTNV-1" source="1vtb1KImNI2E9GhAZsTV-5" target="1vtb1KImNI2E9GhAZsTV-56" edge="1">
          <mxGeometry relative="1" as="geometry" />
        </mxCell>
        <mxCell id="1vtb1KImNI2E9GhAZsTV-65" value="+1" style="text;html=1;align=center;verticalAlign=middle;resizable=0;points=[];autosize=1;strokeColor=none;fillColor=none;" parent="WIyWlLk6GJQsqaUBKTNV-1" vertex="1">
          <mxGeometry x="530" y="178" width="40" height="30" as="geometry" />
        </mxCell>
        <mxCell id="1vtb1KImNI2E9GhAZsTV-66" style="edgeStyle=orthogonalEdgeStyle;rounded=0;orthogonalLoop=1;jettySize=auto;html=1;exitX=1;exitY=0.5;exitDx=0;exitDy=0;entryX=1;entryY=0.5;entryDx=0;entryDy=0;dashed=1;dashPattern=8 8;endArrow=open;endFill=0;" parent="WIyWlLk6GJQsqaUBKTNV-1" source="1vtb1KImNI2E9GhAZsTV-61" target="1vtb1KImNI2E9GhAZsTV-55" edge="1">
          <mxGeometry relative="1" as="geometry">
            <Array as="points">
              <mxPoint x="860" y="831" />
              <mxPoint x="860" y="155" />
            </Array>
          </mxGeometry>
        </mxCell>
        <mxCell id="1vtb1KImNI2E9GhAZsTV-67" value="+1" style="text;html=1;align=center;verticalAlign=middle;resizable=0;points=[];autosize=1;strokeColor=none;fillColor=none;" parent="WIyWlLk6GJQsqaUBKTNV-1" vertex="1">
          <mxGeometry x="711" y="150" width="40" height="30" as="geometry" />
        </mxCell>
        <mxCell id="1vtb1KImNI2E9GhAZsTV-69" value="F_Class" style="swimlane;fontStyle=1;align=center;verticalAlign=top;childLayout=stackLayout;horizontal=1;startSize=26;horizontalStack=0;resizeParent=1;resizeParentMax=0;resizeLast=0;collapsible=1;marginBottom=0;whiteSpace=wrap;html=1;" parent="WIyWlLk6GJQsqaUBKTNV-1" vertex="1">
          <mxGeometry x="622" y="327" width="160" height="104" as="geometry" />
        </mxCell>
        <mxCell id="FZ2KEuvu1x8sY4LzzMJT-1" value="# ClassTeam : F_Team" style="text;strokeColor=none;fillColor=none;align=left;verticalAlign=top;spacingLeft=4;spacingRight=4;overflow=hidden;rotatable=0;points=[[0,0.5],[1,0.5]];portConstraint=eastwest;whiteSpace=wrap;html=1;" parent="1vtb1KImNI2E9GhAZsTV-69" vertex="1">
          <mxGeometry y="26" width="160" height="26" as="geometry" />
        </mxCell>
        <mxCell id="1vtb1KImNI2E9GhAZsTV-117" value="# ClassImg : image" style="text;strokeColor=none;fillColor=none;align=left;verticalAlign=top;spacingLeft=4;spacingRight=4;overflow=hidden;rotatable=0;points=[[0,0.5],[1,0.5]];portConstraint=eastwest;whiteSpace=wrap;html=1;" parent="1vtb1KImNI2E9GhAZsTV-69" vertex="1">
          <mxGeometry y="52" width="160" height="26" as="geometry" />
        </mxCell>
        <mxCell id="1vtb1KImNI2E9GhAZsTV-70" value="+ ClassName : string" style="text;strokeColor=none;fillColor=none;align=left;verticalAlign=top;spacingLeft=4;spacingRight=4;overflow=hidden;rotatable=0;points=[[0,0.5],[1,0.5]];portConstraint=eastwest;whiteSpace=wrap;html=1;" parent="1vtb1KImNI2E9GhAZsTV-69" vertex="1">
          <mxGeometry y="78" width="160" height="26" as="geometry" />
        </mxCell>
        <mxCell id="1vtb1KImNI2E9GhAZsTV-73" style="edgeStyle=orthogonalEdgeStyle;rounded=0;orthogonalLoop=1;jettySize=auto;html=1;exitX=0.996;exitY=0.703;exitDx=0;exitDy=0;entryX=0;entryY=0.25;entryDx=0;entryDy=0;endArrow=diamond;endFill=0;exitPerimeter=0;" parent="WIyWlLk6GJQsqaUBKTNV-1" source="1vtb1KImNI2E9GhAZsTV-5" target="1vtb1KImNI2E9GhAZsTV-69" edge="1">
          <mxGeometry relative="1" as="geometry">
            <mxPoint x="444.9999999999998" y="403" as="sourcePoint" />
          </mxGeometry>
        </mxCell>
        <mxCell id="1vtb1KImNI2E9GhAZsTV-74" value="+1" style="text;html=1;align=center;verticalAlign=middle;resizable=0;points=[];autosize=1;strokeColor=none;fillColor=none;" parent="WIyWlLk6GJQsqaUBKTNV-1" vertex="1">
          <mxGeometry x="583" y="346" width="40" height="30" as="geometry" />
        </mxCell>
        <mxCell id="1vtb1KImNI2E9GhAZsTV-75" value="+9" style="text;html=1;align=center;verticalAlign=middle;resizable=0;points=[];autosize=1;strokeColor=none;fillColor=none;" parent="WIyWlLk6GJQsqaUBKTNV-1" vertex="1">
          <mxGeometry x="482" y="496" width="40" height="30" as="geometry" />
        </mxCell>
        <mxCell id="1vtb1KImNI2E9GhAZsTV-80" style="edgeStyle=orthogonalEdgeStyle;rounded=0;orthogonalLoop=1;jettySize=auto;html=1;exitX=0.75;exitY=0;exitDx=0;exitDy=0;endArrow=diamond;endFill=0;" parent="WIyWlLk6GJQsqaUBKTNV-1" source="1vtb1KImNI2E9GhAZsTV-76" target="1vtb1KImNI2E9GhAZsTV-69" edge="1">
          <mxGeometry relative="1" as="geometry" />
        </mxCell>
        <mxCell id="_5K_CjAwE6rw4ObjQobI-4" style="edgeStyle=orthogonalEdgeStyle;rounded=0;orthogonalLoop=1;jettySize=auto;html=1;entryX=0;entryY=0.5;entryDx=0;entryDy=0;endArrow=diamond;endFill=0;" parent="WIyWlLk6GJQsqaUBKTNV-1" source="1vtb1KImNI2E9GhAZsTV-76" target="OghSh6Rdta4UqrLsj0bJ-9" edge="1">
          <mxGeometry relative="1" as="geometry">
            <Array as="points">
              <mxPoint x="740" y="449" />
            </Array>
          </mxGeometry>
        </mxCell>
        <mxCell id="1vtb1KImNI2E9GhAZsTV-76" value="ClassPiece" style="swimlane;fontStyle=1;align=center;verticalAlign=top;childLayout=stackLayout;horizontal=1;startSize=26;horizontalStack=0;resizeParent=1;resizeParentMax=0;resizeLast=0;collapsible=1;marginBottom=0;whiteSpace=wrap;html=1;" parent="WIyWlLk6GJQsqaUBKTNV-1" vertex="1">
          <mxGeometry x="516" y="594" width="248" height="216" as="geometry" />
        </mxCell>
        <mxCell id="1vtb1KImNI2E9GhAZsTV-85" value="- MaxHealth : int" style="text;strokeColor=none;fillColor=none;align=left;verticalAlign=top;spacingLeft=4;spacingRight=4;overflow=hidden;rotatable=0;points=[[0,0.5],[1,0.5]];portConstraint=eastwest;whiteSpace=wrap;html=1;" parent="1vtb1KImNI2E9GhAZsTV-76" vertex="1">
          <mxGeometry y="26" width="248" height="26" as="geometry" />
        </mxCell>
        <mxCell id="1vtb1KImNI2E9GhAZsTV-86" value="+ Health : int" style="text;strokeColor=none;fillColor=none;align=left;verticalAlign=top;spacingLeft=4;spacingRight=4;overflow=hidden;rotatable=0;points=[[0,0.5],[1,0.5]];portConstraint=eastwest;whiteSpace=wrap;html=1;" parent="1vtb1KImNI2E9GhAZsTV-76" vertex="1">
          <mxGeometry y="52" width="248" height="26" as="geometry" />
        </mxCell>
        <mxCell id="_5K_CjAwE6rw4ObjQobI-2" value="+ Position : int" style="text;strokeColor=none;fillColor=none;align=left;verticalAlign=top;spacingLeft=4;spacingRight=4;overflow=hidden;rotatable=0;points=[[0,0.5],[1,0.5]];portConstraint=eastwest;whiteSpace=wrap;html=1;" parent="1vtb1KImNI2E9GhAZsTV-76" vertex="1">
          <mxGeometry y="78" width="248" height="26" as="geometry" />
        </mxCell>
        <mxCell id="1vtb1KImNI2E9GhAZsTV-77" value="+ Class : F_Class" style="text;strokeColor=none;fillColor=none;align=left;verticalAlign=top;spacingLeft=4;spacingRight=4;overflow=hidden;rotatable=0;points=[[0,0.5],[1,0.5]];portConstraint=eastwest;whiteSpace=wrap;html=1;" parent="1vtb1KImNI2E9GhAZsTV-76" vertex="1">
          <mxGeometry y="104" width="248" height="26" as="geometry" />
        </mxCell>
        <mxCell id="1vtb1KImNI2E9GhAZsTV-113" value="+ ClassMovement : array&amp;lt;Movement&amp;gt;" style="text;strokeColor=none;fillColor=none;align=left;verticalAlign=top;spacingLeft=4;spacingRight=4;overflow=hidden;rotatable=0;points=[[0,0.5],[1,0.5]];portConstraint=eastwest;whiteSpace=wrap;html=1;" parent="1vtb1KImNI2E9GhAZsTV-76" vertex="1">
          <mxGeometry y="130" width="248" height="26" as="geometry" />
        </mxCell>
        <mxCell id="23d7bC51o9MeotY1tfb4-0" value="" style="line;strokeWidth=1;fillColor=none;align=left;verticalAlign=middle;spacingTop=-1;spacingLeft=3;spacingRight=3;rotatable=0;labelPosition=right;points=[];portConstraint=eastwest;strokeColor=inherit;" parent="1vtb1KImNI2E9GhAZsTV-76" vertex="1">
          <mxGeometry y="156" width="248" height="8" as="geometry" />
        </mxCell>
        <mxCell id="23d7bC51o9MeotY1tfb4-2" value="- Die() : void" style="text;strokeColor=none;fillColor=none;align=left;verticalAlign=top;spacingLeft=4;spacingRight=4;overflow=hidden;rotatable=0;points=[[0,0.5],[1,0.5]];portConstraint=eastwest;whiteSpace=wrap;html=1;" parent="1vtb1KImNI2E9GhAZsTV-76" vertex="1">
          <mxGeometry y="164" width="248" height="26" as="geometry" />
        </mxCell>
        <mxCell id="23d7bC51o9MeotY1tfb4-1" value="+ DealDamage(Value : Integer) : void" style="text;strokeColor=none;fillColor=none;align=left;verticalAlign=top;spacingLeft=4;spacingRight=4;overflow=hidden;rotatable=0;points=[[0,0.5],[1,0.5]];portConstraint=eastwest;whiteSpace=wrap;html=1;" parent="1vtb1KImNI2E9GhAZsTV-76" vertex="1">
          <mxGeometry y="190" width="248" height="26" as="geometry" />
        </mxCell>
        <mxCell id="1vtb1KImNI2E9GhAZsTV-81" value="+1" style="text;html=1;align=center;verticalAlign=middle;resizable=0;points=[];autosize=1;strokeColor=none;fillColor=none;" parent="WIyWlLk6GJQsqaUBKTNV-1" vertex="1">
          <mxGeometry x="684" y="430" width="40" height="30" as="geometry" />
        </mxCell>
        <mxCell id="1vtb1KImNI2E9GhAZsTV-89" value="PlayerUI" style="swimlane;fontStyle=1;align=center;verticalAlign=top;childLayout=stackLayout;horizontal=1;startSize=26;horizontalStack=0;resizeParent=1;resizeParentMax=0;resizeLast=0;collapsible=1;marginBottom=0;whiteSpace=wrap;html=1;" parent="WIyWlLk6GJQsqaUBKTNV-1" vertex="1">
          <mxGeometry x="260" y="980" width="160" height="86" as="geometry" />
        </mxCell>
        <mxCell id="1vtb1KImNI2E9GhAZsTV-90" value="- Classes : array&amp;lt;ClassUI&amp;gt;" style="text;strokeColor=none;fillColor=none;align=left;verticalAlign=top;spacingLeft=4;spacingRight=4;overflow=hidden;rotatable=0;points=[[0,0.5],[1,0.5]];portConstraint=eastwest;whiteSpace=wrap;html=1;" parent="1vtb1KImNI2E9GhAZsTV-89" vertex="1">
          <mxGeometry y="26" width="160" height="26" as="geometry" />
        </mxCell>
        <mxCell id="1vtb1KImNI2E9GhAZsTV-91" value="" style="line;strokeWidth=1;fillColor=none;align=left;verticalAlign=middle;spacingTop=-1;spacingLeft=3;spacingRight=3;rotatable=0;labelPosition=right;points=[];portConstraint=eastwest;strokeColor=inherit;" parent="1vtb1KImNI2E9GhAZsTV-89" vertex="1">
          <mxGeometry y="52" width="160" height="8" as="geometry" />
        </mxCell>
        <mxCell id="1vtb1KImNI2E9GhAZsTV-92" value="+ DrawUI() : void" style="text;strokeColor=none;fillColor=none;align=left;verticalAlign=top;spacingLeft=4;spacingRight=4;overflow=hidden;rotatable=0;points=[[0,0.5],[1,0.5]];portConstraint=eastwest;whiteSpace=wrap;html=1;" parent="1vtb1KImNI2E9GhAZsTV-89" vertex="1">
          <mxGeometry y="60" width="160" height="26" as="geometry" />
        </mxCell>
        <mxCell id="1vtb1KImNI2E9GhAZsTV-97" value="ClassUI" style="swimlane;fontStyle=1;align=center;verticalAlign=top;childLayout=stackLayout;horizontal=1;startSize=26;horizontalStack=0;resizeParent=1;resizeParentMax=0;resizeLast=0;collapsible=1;marginBottom=0;whiteSpace=wrap;html=1;" parent="WIyWlLk6GJQsqaUBKTNV-1" vertex="1">
          <mxGeometry x="540" y="980" width="160" height="52" as="geometry" />
        </mxCell>
        <mxCell id="1vtb1KImNI2E9GhAZsTV-116" value="+ ClassInfo : ClassPiece" style="text;strokeColor=none;fillColor=none;align=left;verticalAlign=top;spacingLeft=4;spacingRight=4;overflow=hidden;rotatable=0;points=[[0,0.5],[1,0.5]];portConstraint=eastwest;whiteSpace=wrap;html=1;" parent="1vtb1KImNI2E9GhAZsTV-97" vertex="1">
          <mxGeometry y="26" width="160" height="26" as="geometry" />
        </mxCell>
        <mxCell id="1vtb1KImNI2E9GhAZsTV-102" style="edgeStyle=orthogonalEdgeStyle;rounded=0;orthogonalLoop=1;jettySize=auto;html=1;exitX=1;exitY=0.5;exitDx=0;exitDy=0;entryX=0;entryY=0.25;entryDx=0;entryDy=0;endArrow=diamond;endFill=0;" parent="WIyWlLk6GJQsqaUBKTNV-1" source="1vtb1KImNI2E9GhAZsTV-90" target="1vtb1KImNI2E9GhAZsTV-97" edge="1">
          <mxGeometry relative="1" as="geometry" />
        </mxCell>
        <mxCell id="1vtb1KImNI2E9GhAZsTV-103" value="+4" style="text;html=1;align=center;verticalAlign=middle;resizable=0;points=[];autosize=1;strokeColor=none;fillColor=none;" parent="WIyWlLk6GJQsqaUBKTNV-1" vertex="1">
          <mxGeometry x="499" y="999" width="40" height="30" as="geometry" />
        </mxCell>
        <mxCell id="1vtb1KImNI2E9GhAZsTV-107" value="Movement" style="swimlane;fontStyle=1;align=center;verticalAlign=top;childLayout=stackLayout;horizontal=1;startSize=26;horizontalStack=0;resizeParent=1;resizeParentMax=0;resizeLast=0;collapsible=1;marginBottom=0;whiteSpace=wrap;html=1;" parent="WIyWlLk6GJQsqaUBKTNV-1" vertex="1">
          <mxGeometry x="920" y="724" width="160" height="52" as="geometry" />
        </mxCell>
        <mxCell id="1vtb1KImNI2E9GhAZsTV-108" value="+ Direction : Vector2D" style="text;strokeColor=none;fillColor=none;align=left;verticalAlign=top;spacingLeft=4;spacingRight=4;overflow=hidden;rotatable=0;points=[[0,0.5],[1,0.5]];portConstraint=eastwest;whiteSpace=wrap;html=1;" parent="1vtb1KImNI2E9GhAZsTV-107" vertex="1">
          <mxGeometry y="26" width="160" height="26" as="geometry" />
        </mxCell>
        <mxCell id="1vtb1KImNI2E9GhAZsTV-111" style="edgeStyle=orthogonalEdgeStyle;rounded=0;orthogonalLoop=1;jettySize=auto;html=1;exitX=1;exitY=0.5;exitDx=0;exitDy=0;entryX=1;entryY=0.5;entryDx=0;entryDy=0;dashed=1;dashPattern=8 8;endArrow=open;endFill=0;" parent="WIyWlLk6GJQsqaUBKTNV-1" source="1vtb1KImNI2E9GhAZsTV-116" target="1vtb1KImNI2E9GhAZsTV-77" edge="1">
          <mxGeometry relative="1" as="geometry">
            <Array as="points">
              <mxPoint x="700" y="1020" />
              <mxPoint x="800" y="1020" />
              <mxPoint x="800" y="711" />
            </Array>
            <mxPoint x="700" y="1045" as="sourcePoint" />
          </mxGeometry>
        </mxCell>
        <mxCell id="1vtb1KImNI2E9GhAZsTV-114" style="edgeStyle=orthogonalEdgeStyle;rounded=0;orthogonalLoop=1;jettySize=auto;html=1;entryX=0;entryY=0.25;entryDx=0;entryDy=0;dashed=1;dashPattern=8 8;endArrow=open;endFill=0;" parent="WIyWlLk6GJQsqaUBKTNV-1" source="1vtb1KImNI2E9GhAZsTV-113" target="1vtb1KImNI2E9GhAZsTV-107" edge="1">
          <mxGeometry relative="1" as="geometry" />
        </mxCell>
        <mxCell id="1vtb1KImNI2E9GhAZsTV-115" value="+1..8" style="text;html=1;align=center;verticalAlign=middle;resizable=0;points=[];autosize=1;strokeColor=none;fillColor=none;" parent="WIyWlLk6GJQsqaUBKTNV-1" vertex="1">
          <mxGeometry x="870" y="735" width="50" height="30" as="geometry" />
        </mxCell>
        <mxCell id="1vtb1KImNI2E9GhAZsTV-120" value="+1" style="text;html=1;align=center;verticalAlign=middle;resizable=0;points=[];autosize=1;strokeColor=none;fillColor=none;" parent="WIyWlLk6GJQsqaUBKTNV-1" vertex="1">
          <mxGeometry x="764" y="709" width="40" height="30" as="geometry" />
        </mxCell>
        <mxCell id="1vtb1KImNI2E9GhAZsTV-125" style="edgeStyle=orthogonalEdgeStyle;rounded=0;orthogonalLoop=1;jettySize=auto;html=1;exitX=1;exitY=0.5;exitDx=0;exitDy=0;" parent="WIyWlLk6GJQsqaUBKTNV-1" source="1vtb1KImNI2E9GhAZsTV-124" target="1vtb1KImNI2E9GhAZsTV-76" edge="1">
          <mxGeometry relative="1" as="geometry" />
        </mxCell>
        <mxCell id="1vtb1KImNI2E9GhAZsTV-126" value="+4" style="text;html=1;align=center;verticalAlign=middle;resizable=0;points=[];autosize=1;strokeColor=none;fillColor=none;" parent="WIyWlLk6GJQsqaUBKTNV-1" vertex="1">
          <mxGeometry x="633" y="830" width="40" height="30" as="geometry" />
        </mxCell>
        <mxCell id="FZ2KEuvu1x8sY4LzzMJT-2" style="edgeStyle=orthogonalEdgeStyle;rounded=0;orthogonalLoop=1;jettySize=auto;html=1;exitX=1;exitY=0.5;exitDx=0;exitDy=0;entryX=1;entryY=0.5;entryDx=0;entryDy=0;endArrow=open;endFill=0;dashed=1;dashPattern=8 8;" parent="WIyWlLk6GJQsqaUBKTNV-1" source="FZ2KEuvu1x8sY4LzzMJT-1" target="1vtb1KImNI2E9GhAZsTV-56" edge="1">
          <mxGeometry relative="1" as="geometry" />
        </mxCell>
        <mxCell id="FZ2KEuvu1x8sY4LzzMJT-3" value="+1" style="text;html=1;align=center;verticalAlign=middle;resizable=0;points=[];autosize=1;strokeColor=none;fillColor=none;" parent="WIyWlLk6GJQsqaUBKTNV-1" vertex="1">
          <mxGeometry x="710" y="178" width="40" height="30" as="geometry" />
        </mxCell>
        <mxCell id="OghSh6Rdta4UqrLsj0bJ-4" value="Tile" style="swimlane;fontStyle=0;childLayout=stackLayout;horizontal=1;startSize=26;fillColor=none;horizontalStack=0;resizeParent=1;resizeParentMax=0;resizeLast=0;collapsible=1;marginBottom=0;whiteSpace=wrap;html=1;" parent="WIyWlLk6GJQsqaUBKTNV-1" vertex="1">
          <mxGeometry x="890" y="508" width="230" height="104" as="geometry" />
        </mxCell>
        <mxCell id="OghSh6Rdta4UqrLsj0bJ-5" value="+ TeamAffiliation : F_Team" style="text;strokeColor=none;fillColor=none;align=left;verticalAlign=top;spacingLeft=4;spacingRight=4;overflow=hidden;rotatable=0;points=[[0,0.5],[1,0.5]];portConstraint=eastwest;whiteSpace=wrap;html=1;" parent="OghSh6Rdta4UqrLsj0bJ-4" vertex="1">
          <mxGeometry y="26" width="230" height="26" as="geometry" />
        </mxCell>
        <mxCell id="OghSh6Rdta4UqrLsj0bJ-6" value="+ bIsOccupied : bool" style="text;strokeColor=none;fillColor=none;align=left;verticalAlign=top;spacingLeft=4;spacingRight=4;overflow=hidden;rotatable=0;points=[[0,0.5],[1,0.5]];portConstraint=eastwest;whiteSpace=wrap;html=1;" parent="OghSh6Rdta4UqrLsj0bJ-4" vertex="1">
          <mxGeometry y="52" width="230" height="26" as="geometry" />
        </mxCell>
        <mxCell id="OghSh6Rdta4UqrLsj0bJ-7" value="+ ClassPieceOccupyingTile : ClassPiece" style="text;strokeColor=none;fillColor=none;align=left;verticalAlign=top;spacingLeft=4;spacingRight=4;overflow=hidden;rotatable=0;points=[[0,0.5],[1,0.5]];portConstraint=eastwest;whiteSpace=wrap;html=1;" parent="OghSh6Rdta4UqrLsj0bJ-4" vertex="1">
          <mxGeometry y="78" width="230" height="26" as="geometry" />
        </mxCell>
        <mxCell id="OghSh6Rdta4UqrLsj0bJ-8" value="Board" style="swimlane;fontStyle=0;childLayout=stackLayout;horizontal=1;startSize=26;fillColor=none;horizontalStack=0;resizeParent=1;resizeParentMax=0;resizeLast=0;collapsible=1;marginBottom=0;whiteSpace=wrap;html=1;" parent="WIyWlLk6GJQsqaUBKTNV-1" vertex="1">
          <mxGeometry x="935" y="410" width="140" height="52" as="geometry" />
        </mxCell>
        <mxCell id="OghSh6Rdta4UqrLsj0bJ-9" value="+ Tiles : 2DArray" style="text;strokeColor=none;fillColor=none;align=left;verticalAlign=top;spacingLeft=4;spacingRight=4;overflow=hidden;rotatable=0;points=[[0,0.5],[1,0.5]];portConstraint=eastwest;whiteSpace=wrap;html=1;" parent="OghSh6Rdta4UqrLsj0bJ-8" vertex="1">
          <mxGeometry y="26" width="140" height="26" as="geometry" />
        </mxCell>
        <mxCell id="OghSh6Rdta4UqrLsj0bJ-12" style="edgeStyle=orthogonalEdgeStyle;rounded=0;orthogonalLoop=1;jettySize=auto;html=1;entryX=0.5;entryY=0;entryDx=0;entryDy=0;dashed=1;dashPattern=8 8;endArrow=open;endFill=0;" parent="WIyWlLk6GJQsqaUBKTNV-1" source="OghSh6Rdta4UqrLsj0bJ-8" target="OghSh6Rdta4UqrLsj0bJ-4" edge="1">
          <mxGeometry relative="1" as="geometry" />
        </mxCell>
        <mxCell id="_5K_CjAwE6rw4ObjQobI-6" value="CPP_DiscardPile" style="swimlane;fontStyle=0;childLayout=stackLayout;horizontal=1;startSize=26;fillColor=none;horizontalStack=0;resizeParent=1;resizeParentMax=0;resizeLast=0;collapsible=1;marginBottom=0;whiteSpace=wrap;html=1;" parent="WIyWlLk6GJQsqaUBKTNV-1" vertex="1">
          <mxGeometry x="-90" y="244" width="270" height="130" as="geometry" />
        </mxCell>
        <mxCell id="_5K_CjAwE6rw4ObjQobI-7" value="+ShuffledArray:TArray&amp;lt;ACPP_Card*&amp;gt; +DiscardPileArray:TArray&amp;lt;ACPP_Card*&amp;gt;" style="text;strokeColor=none;fillColor=none;align=left;verticalAlign=top;spacingLeft=4;spacingRight=4;overflow=hidden;rotatable=0;points=[[0,0.5],[1,0.5]];portConstraint=eastwest;whiteSpace=wrap;html=1;" parent="_5K_CjAwE6rw4ObjQobI-6" vertex="1">
          <mxGeometry y="26" width="270" height="44" as="geometry" />
        </mxCell>
        <mxCell id="_5K_CjAwE6rw4ObjQobI-11" value="" style="line;strokeWidth=1;fillColor=none;align=left;verticalAlign=middle;spacingTop=-1;spacingLeft=3;spacingRight=3;rotatable=0;labelPosition=right;points=[];portConstraint=eastwest;strokeColor=inherit;" parent="_5K_CjAwE6rw4ObjQobI-6" vertex="1">
          <mxGeometry y="70" width="270" height="8" as="geometry" />
        </mxCell>
        <mxCell id="_5K_CjAwE6rw4ObjQobI-10" value="+ AddCardsFromDrawPile(ACPP_Card*) : void&lt;div&gt;+EmptyDiscardPile():ACPP:Card*&lt;/div&gt;&lt;div&gt;+AddCardsToShuffledPile():void&lt;/div&gt;" style="text;strokeColor=none;fillColor=none;align=left;verticalAlign=top;spacingLeft=4;spacingRight=4;overflow=hidden;rotatable=0;points=[[0,0.5],[1,0.5]];portConstraint=eastwest;whiteSpace=wrap;html=1;" parent="_5K_CjAwE6rw4ObjQobI-6" vertex="1">
          <mxGeometry y="78" width="270" height="52" as="geometry" />
        </mxCell>
        <mxCell id="_5K_CjAwE6rw4ObjQobI-12" style="edgeStyle=orthogonalEdgeStyle;rounded=0;orthogonalLoop=1;jettySize=auto;html=1;entryX=0.5;entryY=0;entryDx=0;entryDy=0;endArrow=diamond;endFill=0;" parent="WIyWlLk6GJQsqaUBKTNV-1" target="_5K_CjAwE6rw4ObjQobI-6" edge="1">
          <mxGeometry relative="1" as="geometry">
            <mxPoint x="210" y="165.0000000000001" as="sourcePoint" />
          </mxGeometry>
        </mxCell>
        <mxCell id="_5K_CjAwE6rw4ObjQobI-13" value="+1" style="text;html=1;align=center;verticalAlign=middle;resizable=0;points=[];autosize=1;strokeColor=none;fillColor=none;" parent="WIyWlLk6GJQsqaUBKTNV-1" vertex="1">
          <mxGeometry x="100" y="214" width="40" height="30" as="geometry" />
        </mxCell>
        <mxCell id="_5K_CjAwE6rw4ObjQobI-14" style="edgeStyle=orthogonalEdgeStyle;rounded=0;orthogonalLoop=1;jettySize=auto;html=1;entryX=0.25;entryY=0;entryDx=0;entryDy=0;endArrow=diamond;endFill=0;exitX=0;exitY=0.5;exitDx=0;exitDy=0;" parent="WIyWlLk6GJQsqaUBKTNV-1" source="1vtb1KImNI2E9GhAZsTV-51" target="1vtb1KImNI2E9GhAZsTV-23" edge="1">
          <mxGeometry relative="1" as="geometry">
            <Array as="points">
              <mxPoint x="-150" y="804" />
              <mxPoint x="-150" y="80" />
              <mxPoint x="272" y="80" />
            </Array>
          </mxGeometry>
        </mxCell>
        <mxCell id="_5K_CjAwE6rw4ObjQobI-16" value="0..*" style="text;html=1;align=center;verticalAlign=middle;resizable=0;points=[];autosize=1;strokeColor=none;fillColor=none;" parent="WIyWlLk6GJQsqaUBKTNV-1" vertex="1">
          <mxGeometry x="1001" y="478" width="40" height="30" as="geometry" />
        </mxCell>
        <mxCell id="lDBsE0UKdXbJ8E-LJkqk-2" value="CPP_CountingSort" style="swimlane;fontStyle=1;align=center;verticalAlign=top;childLayout=stackLayout;horizontal=1;startSize=26;horizontalStack=0;resizeParent=1;resizeParentMax=0;resizeLast=0;collapsible=1;marginBottom=0;whiteSpace=wrap;html=1;" vertex="1" parent="WIyWlLk6GJQsqaUBKTNV-1">
          <mxGeometry x="960" y="116" width="260" height="120" as="geometry" />
        </mxCell>
        <mxCell id="lDBsE0UKdXbJ8E-LJkqk-3" value="+ CardsForSorting: TArray&amp;lt;ACPP_Cards*&amp;gt;&lt;div&gt;&lt;br&gt;&lt;div&gt;&amp;nbsp;&lt;br&gt;&lt;/div&gt;&lt;/div&gt;" style="text;strokeColor=none;fillColor=none;align=left;verticalAlign=top;spacingLeft=4;spacingRight=4;overflow=hidden;rotatable=0;points=[[0,0.5],[1,0.5]];portConstraint=eastwest;whiteSpace=wrap;html=1;" vertex="1" parent="lDBsE0UKdXbJ8E-LJkqk-2">
          <mxGeometry y="26" width="260" height="34" as="geometry" />
        </mxCell>
        <mxCell id="lDBsE0UKdXbJ8E-LJkqk-4" value="" style="endArrow=none;html=1;rounded=0;entryX=1.017;entryY=-0.022;entryDx=0;entryDy=0;entryPerimeter=0;exitX=0;exitY=0;exitDx=0;exitDy=0;exitPerimeter=0;" edge="1" parent="lDBsE0UKdXbJ8E-LJkqk-2" source="lDBsE0UKdXbJ8E-LJkqk-5" target="lDBsE0UKdXbJ8E-LJkqk-5">
          <mxGeometry width="50" height="50" relative="1" as="geometry">
            <mxPoint x="130" y="150" as="sourcePoint" />
            <mxPoint x="180" y="100" as="targetPoint" />
          </mxGeometry>
        </mxCell>
        <mxCell id="lDBsE0UKdXbJ8E-LJkqk-5" value="&lt;div&gt;&lt;div&gt;+Sort():void&lt;/div&gt;&lt;/div&gt;&lt;div&gt;&lt;font color=&quot;#cc6600&quot;&gt;+PrintArray():void&lt;/font&gt;&lt;/div&gt;&lt;div&gt;+FillHand(ACPP_Card*):void&lt;/div&gt;&lt;div&gt;&lt;br&gt;&lt;/div&gt;" style="text;strokeColor=none;fillColor=none;align=left;verticalAlign=top;spacingLeft=4;spacingRight=4;overflow=hidden;rotatable=0;points=[[0,0.5],[1,0.5]];portConstraint=eastwest;whiteSpace=wrap;html=1;" vertex="1" parent="lDBsE0UKdXbJ8E-LJkqk-2">
          <mxGeometry y="60" width="260" height="60" as="geometry" />
        </mxCell>
        <mxCell id="lDBsE0UKdXbJ8E-LJkqk-6" value="CPP_Stacks_Interface" style="swimlane;fontStyle=1;align=center;verticalAlign=top;childLayout=stackLayout;horizontal=1;startSize=26;horizontalStack=0;resizeParent=1;resizeParentMax=0;resizeLast=0;collapsible=1;marginBottom=0;whiteSpace=wrap;html=1;" vertex="1" parent="WIyWlLk6GJQsqaUBKTNV-1">
          <mxGeometry x="215" y="-120" width="250" height="100" as="geometry" />
        </mxCell>
        <mxCell id="lDBsE0UKdXbJ8E-LJkqk-8" value="" style="line;strokeWidth=1;fillColor=none;align=left;verticalAlign=middle;spacingTop=-1;spacingLeft=3;spacingRight=3;rotatable=0;labelPosition=right;points=[];portConstraint=eastwest;strokeColor=inherit;" vertex="1" parent="lDBsE0UKdXbJ8E-LJkqk-6">
          <mxGeometry y="26" width="250" height="24" as="geometry" />
        </mxCell>
        <mxCell id="lDBsE0UKdXbJ8E-LJkqk-9" value="+ Push(ACPP_Card*) : void&lt;div&gt;+ Pop(): ACPP_Card*&lt;/div&gt;" style="text;strokeColor=none;fillColor=none;align=left;verticalAlign=top;spacingLeft=4;spacingRight=4;overflow=hidden;rotatable=0;points=[[0,0.5],[1,0.5]];portConstraint=eastwest;whiteSpace=wrap;html=1;" vertex="1" parent="lDBsE0UKdXbJ8E-LJkqk-6">
          <mxGeometry y="50" width="250" height="50" as="geometry" />
        </mxCell>
        <mxCell id="lDBsE0UKdXbJ8E-LJkqk-10" style="edgeStyle=orthogonalEdgeStyle;rounded=0;orthogonalLoop=1;jettySize=auto;html=1;endArrow=diamond;endFill=0;exitX=0.5;exitY=0;exitDx=0;exitDy=0;entryX=0.486;entryY=1;entryDx=0;entryDy=0;entryPerimeter=0;" edge="1" parent="WIyWlLk6GJQsqaUBKTNV-1" source="1vtb1KImNI2E9GhAZsTV-23" target="lDBsE0UKdXbJ8E-LJkqk-9">
          <mxGeometry relative="1" as="geometry">
            <mxPoint x="345" y="220" as="sourcePoint" />
            <mxPoint x="330" y="-40" as="targetPoint" />
            <Array as="points">
              <mxPoint x="337" y="100" />
            </Array>
          </mxGeometry>
        </mxCell>
        <mxCell id="lDBsE0UKdXbJ8E-LJkqk-11" value="1&lt;div&gt;&lt;br&gt;&lt;/div&gt;" style="text;html=1;align=center;verticalAlign=middle;resizable=0;points=[];autosize=1;strokeColor=none;fillColor=none;" vertex="1" parent="WIyWlLk6GJQsqaUBKTNV-1">
          <mxGeometry x="340" y="76" width="30" height="40" as="geometry" />
        </mxCell>
        <mxCell id="lDBsE0UKdXbJ8E-LJkqk-12" style="edgeStyle=orthogonalEdgeStyle;rounded=0;orthogonalLoop=1;jettySize=auto;html=1;exitX=0;exitY=0;exitDx=0;exitDy=0;entryX=1;entryY=0;entryDx=0;entryDy=0;endArrow=open;endFill=0;dashed=1;dashPattern=8 8;" edge="1" parent="WIyWlLk6GJQsqaUBKTNV-1" source="lDBsE0UKdXbJ8E-LJkqk-2" target="1vtb1KImNI2E9GhAZsTV-4">
          <mxGeometry relative="1" as="geometry">
            <mxPoint x="792" y="376" as="sourcePoint" />
            <mxPoint x="720" y="191" as="targetPoint" />
            <Array as="points">
              <mxPoint x="960" y="96" />
              <mxPoint x="480" y="96" />
              <mxPoint x="480" y="330" />
            </Array>
          </mxGeometry>
        </mxCell>
        <mxCell id="lDBsE0UKdXbJ8E-LJkqk-13" value="+1" style="text;html=1;align=center;verticalAlign=middle;resizable=0;points=[];autosize=1;strokeColor=none;fillColor=none;" vertex="1" parent="WIyWlLk6GJQsqaUBKTNV-1">
          <mxGeometry x="420" y="300" width="40" height="30" as="geometry" />
        </mxCell>
      </root>
    </mxGraphModel>
  </diagram>
</mxfile>
